<svg width="24" height="24" viewBox="0 0 24 24" fill="none" xmlns="http://www.w3.org/2000/svg">
<path d="M7.66675 12.0002C7.66675 11.2744 7.95268 10.5778 8.46216 10.0608L8.46582 10.0564L15.0525 3.46973L15.1096 3.41846C15.4042 3.17811 15.8384 3.19522 16.113 3.46973C16.3876 3.74424 16.4051 4.17857 16.165 4.47315L16.113 4.53028L9.52637 11.1177C9.29597 11.3536 9.16675 11.6704 9.16675 12.0002L9.17261 12.124C9.20084 12.4103 9.3264 12.6798 9.53003 12.8865L16.113 19.4695L16.165 19.5266C16.4052 19.8212 16.3876 20.2555 16.113 20.53C15.8385 20.8046 15.4042 20.8222 15.1096 20.582L15.0525 20.53L8.46216 13.9397C7.98453 13.4551 7.70366 12.8122 7.67041 12.1357L7.66675 12.0002Z" fill="#4A4A4A"/>
</svg>
