<svg width="24" height="24" viewBox="0 0 24 24" fill="none" xmlns="http://www.w3.org/2000/svg">
<path d="M18.9697 6.97979C19.2626 6.68692 19.7373 6.68691 20.0302 6.97979C20.3231 7.27269 20.3231 7.74745 20.0302 8.04033L11.5231 16.5467C11.3057 16.766 11.0471 16.9402 10.7621 17.0594C10.4755 17.1792 10.1676 17.241 9.85688 17.241C9.5463 17.241 9.23889 17.1791 8.95234 17.0594C8.66728 16.9402 8.4081 16.7661 8.19062 16.5467L3.96967 12.3257C3.67678 12.0328 3.67678 11.5573 3.96967 11.2645C4.26252 10.9718 4.73737 10.9718 5.03022 11.2645L9.25483 15.4891C9.33352 15.5688 9.42758 15.6326 9.53095 15.6758C9.63419 15.7189 9.745 15.741 9.85688 15.741C9.96892 15.741 10.0802 15.7191 10.1835 15.6758C10.2869 15.6326 10.3803 15.5688 10.4589 15.4891L18.9697 6.97979Z" fill="white"/>
</svg>
