<svg width="24" height="24" viewBox="0 0 24 24" fill="none" xmlns="http://www.w3.org/2000/svg">
<path d="M18.5264 4.41844C18.821 4.17793 19.2558 4.19503 19.5305 4.46971C19.805 4.74427 19.8219 5.1786 19.5818 5.47313L19.5305 5.53026L13.0603 11.9997L19.5305 18.47L19.5818 18.5264C19.8222 18.8209 19.8052 19.2559 19.5305 19.5305C19.2559 19.8051 18.821 19.8222 18.5264 19.5818L18.47 19.5305L11.9998 13.0603L5.53028 19.5305C5.23742 19.8232 4.76259 19.8232 4.46973 19.5305C4.17688 19.2377 4.17696 18.7629 4.46973 18.47L10.9392 11.9997L4.46973 5.53026L4.41846 5.47313C4.1782 5.17855 4.19514 4.7443 4.46973 4.46971C4.74432 4.19513 5.17857 4.17818 5.47315 4.41844L5.53028 4.46971L11.9998 10.9392L18.47 4.46971L18.5264 4.41844Z" fill="#4A4A4A"/>
</svg>
