<svg width="16" height="16" viewBox="0 0 16 16" fill="none" xmlns="http://www.w3.org/2000/svg">
<path d="M13.6672 5.25867C13.6673 4.96441 13.6094 4.67262 13.4968 4.40076C13.3843 4.12906 13.2194 3.88216 13.0115 3.67419C12.8034 3.46613 12.5563 3.30093 12.2844 3.18835C12.0144 3.07654 11.7251 3.01865 11.4329 3.01794C11.4306 3.01797 11.4283 3.01843 11.426 3.01843H4.57349C4.27934 3.01836 3.98785 3.07635 3.71606 3.18884C3.44423 3.30138 3.19707 3.46667 2.98901 3.67468C2.781 3.88267 2.61576 4.12949 2.50317 4.40125C2.39058 4.67304 2.33276 4.96447 2.33276 5.25867V5.4447H13.6672V5.25867ZM7.57153 10.2406C7.84762 10.2407 8.07153 10.4645 8.07153 10.7406C8.07153 11.0167 7.84763 11.2405 7.57153 11.2406H4.14526C3.8692 11.2405 3.64526 11.0167 3.64526 10.7406C3.64527 10.4645 3.8692 10.2407 4.14526 10.2406H7.57153ZM2.33276 10.7406C2.33269 11.0348 2.39065 11.3262 2.50317 11.598C2.61575 11.8699 2.78095 12.117 2.98901 12.3251C3.19703 12.5331 3.44379 12.6983 3.71558 12.8109C3.98744 12.9235 4.27923 12.9814 4.57349 12.9813H11.427C11.7212 12.9814 12.0126 12.9234 12.2844 12.8109C12.5561 12.6984 12.803 12.5335 13.011 12.3256C13.219 12.1176 13.3842 11.8703 13.4968 11.5985C13.6094 11.3267 13.6672 11.0353 13.6672 10.7411V6.4447H2.33276V10.7406ZM14.6672 10.7411C14.6672 11.1666 14.5835 11.5882 14.4207 11.9813C14.2578 12.3745 14.019 12.7317 13.718 13.0326C13.4171 13.3334 13.0599 13.572 12.6667 13.7347C12.2737 13.8975 11.8524 13.9814 11.427 13.9813H4.57349C4.14789 13.9814 3.72647 13.8976 3.33325 13.7347C2.94002 13.5719 2.58245 13.3331 2.28149 13.0321C1.98066 12.7312 1.74213 12.374 1.57935 11.9808C1.43686 11.6367 1.35485 11.271 1.33667 10.8998L1.33276 10.7406V5.25867C1.33276 4.83312 1.41647 4.41158 1.57935 4.01843C1.74222 3.6253 1.98105 3.26802 2.28198 2.96716C2.58288 2.66635 2.94014 2.42778 3.33325 2.26501C3.72642 2.10224 4.14796 2.01834 4.57349 2.01843H11.4163C11.4197 2.01836 11.4231 2.01795 11.4265 2.01794C11.8521 2.01784 12.2736 2.10174 12.6667 2.26453C13.0599 2.42734 13.4176 2.66577 13.7185 2.96667C14.0195 3.26763 14.2583 3.6252 14.4211 4.01843C14.5839 4.41163 14.6673 4.8331 14.6672 5.25867V10.7411Z" fill="#6A46EB"/>
</svg>
