<svg width="20" height="20" viewBox="0 0 20 20" fill="none" xmlns="http://www.w3.org/2000/svg">
<path d="M16.8419 17.0829C17.1868 17.083 17.4667 17.363 17.4669 17.7079C17.4669 18.053 17.187 18.3327 16.8419 18.3329H3.15833C2.81315 18.3329 2.53333 18.0531 2.53333 17.7079C2.53358 17.3629 2.81331 17.0829 3.15833 17.0829H16.8419ZM12.3634 1.72546C12.6088 1.65458 12.8687 1.648 13.1173 1.7069C13.1227 1.70818 13.1285 1.70938 13.1339 1.71081C13.9797 1.93538 14.7486 2.38427 15.3615 3.00866C15.918 3.54561 16.339 4.20596 16.589 4.93444L16.6857 5.25085L16.6925 5.2821C16.745 5.52711 16.7359 5.78166 16.6661 6.02233C16.5964 6.26296 16.4684 6.48303 16.2931 6.66198L16.2882 6.66589L8.23547 14.7196C8.22963 14.7254 8.22299 14.7306 8.21692 14.7362C7.98906 14.9466 7.70533 15.0866 7.39954 15.1385C7.39431 15.1394 7.38915 15.1407 7.38391 15.1415L4.51965 15.5516H4.51477C4.28553 15.5826 4.05212 15.5597 3.83313 15.4852C3.61415 15.4107 3.41488 15.2872 3.25208 15.1229C3.08934 14.9587 2.96712 14.7585 2.89465 14.5389C2.8222 14.3192 2.80198 14.0853 2.83508 13.8563L3.24524 11.0028C3.28728 10.678 3.43991 10.3768 3.67688 10.1503L11.7159 2.11218C11.8948 1.92984 12.1181 1.79639 12.3634 1.72546ZM4.54016 11.0546C4.50953 11.0839 4.48956 11.1228 4.4845 11.1649C4.48389 11.17 4.48328 11.1754 4.48254 11.1805L4.07239 14.035C4.06696 14.0725 4.07028 14.1113 4.08215 14.1473C4.09404 14.1832 4.11415 14.2162 4.14075 14.243C4.16737 14.2698 4.19973 14.2904 4.23547 14.3026C4.26968 14.3142 4.30606 14.3174 4.34192 14.3133L7.19055 13.9061L7.28625 13.8758C7.31645 13.861 7.3443 13.8413 7.36926 13.8182L13.4425 7.74401L10.6427 4.95202L4.54016 11.0546ZM12.7101 2.92565C12.6716 2.93683 12.6366 2.95856 12.6085 2.98718L11.5265 4.06823L14.3253 6.86022L15.4044 5.7821C15.433 5.75155 15.4542 5.71488 15.4659 5.67468C15.477 5.63661 15.4782 5.5965 15.4718 5.55749C15.2995 4.93005 14.9627 4.36001 14.4943 3.90807C14.4896 3.9036 14.4851 3.89902 14.4806 3.8944C14.0257 3.42706 13.4531 3.09092 12.8234 2.92175C12.786 2.91389 12.7468 2.91505 12.7101 2.92565Z" fill="#6A46EB"/>
</svg>
