<svg width="24" height="24" viewBox="0 0 24 24" fill="none" xmlns="http://www.w3.org/2000/svg">
<path d="M13.321 15.6774C14.0981 15.6774 14.8435 15.9856 15.3931 16.535C15.7618 16.9037 16.0218 17.3612 16.1533 17.8571H21.2502C21.6643 17.8572 22.0002 18.1929 22.0002 18.6071C22.0002 19.0212 21.6643 19.3569 21.2502 19.3571H16.1541C16.0226 19.8532 15.762 20.3109 15.3931 20.6798C14.8435 21.2293 14.0982 21.5382 13.321 21.5382C12.5431 21.5382 11.7979 21.2279 11.249 20.6791C10.8802 20.3102 10.6208 19.8527 10.4895 19.3571H2.75C2.3358 19.3571 2.00002 19.0212 2 18.6071C2 18.1928 2.33579 17.8571 2.75 17.8571H10.4888C10.6201 17.3613 10.8801 16.9039 11.249 16.535C11.7985 15.9856 12.544 15.6774 13.321 15.6774ZM13.321 17.1774C12.9418 17.1774 12.5777 17.3274 12.3096 17.5956C12.0414 17.8638 11.8914 18.2278 11.8914 18.6071C11.8914 18.9863 12.0414 19.3504 12.3096 19.6185C12.5784 19.8873 12.9427 20.0382 13.321 20.0382C13.7004 20.0382 14.0643 19.8875 14.3325 19.6193C14.601 19.3508 14.7522 18.9862 14.7522 18.6071C14.7522 18.2284 14.6011 17.865 14.3325 17.5963C14.0643 17.3281 13.7004 17.1774 13.321 17.1774ZM6.71387 9.07019C7.49089 9.07019 8.23642 9.37846 8.78589 9.92786C9.1547 10.2967 9.41409 10.7542 9.54541 11.2499H21.2502C21.6643 11.25 22.0002 11.5858 22.0002 11.9999C22.0002 12.414 21.6643 12.7497 21.2502 12.7499H9.54614C9.41485 13.2457 9.15481 13.703 8.78589 14.0719C8.23641 14.6214 7.49095 14.9303 6.71387 14.9303C5.93683 14.9303 5.1913 14.6213 4.64185 14.0719C4.27303 13.703 4.01361 13.2456 3.88232 12.7499H2.75C2.33579 12.7499 2 12.4141 2 11.9999C2.00007 11.5857 2.33583 11.2499 2.75 11.2499H3.88232C4.01364 10.7542 4.27302 10.2967 4.64185 9.92786C5.1913 9.37841 5.93683 9.07023 6.71387 9.07019ZM6.71387 10.5702C6.33466 10.5702 5.97127 10.721 5.70312 10.9891C5.43498 11.2573 5.28422 11.6207 5.28418 11.9999C5.28418 12.3791 5.43495 12.7432 5.70312 13.0114C5.97125 13.2794 6.33477 13.4303 6.71387 13.4303C7.09313 13.4303 7.45716 13.2795 7.72534 13.0114C7.99352 12.7432 8.14429 12.3791 8.14429 11.9999C8.14425 11.6208 7.99334 11.2573 7.72534 10.9891C7.45716 10.721 7.09313 10.5702 6.71387 10.5702ZM15.9644 2.46301C16.349 2.46306 16.7296 2.53924 17.085 2.6864C17.4404 2.83365 17.7636 3.04934 18.0356 3.32141C18.3077 3.59348 18.5234 3.91662 18.6707 4.27209C18.7207 4.39293 18.7618 4.51683 18.7952 4.6427H21.2502C21.6642 4.64283 22.0001 4.97871 22.0002 5.3927C22.0002 5.80683 21.6643 6.14257 21.2502 6.1427H18.7959C18.7625 6.26887 18.7208 6.39293 18.6707 6.51404C18.5234 6.86952 18.3077 7.19265 18.0356 7.46472C17.7636 7.73678 17.4404 7.95249 17.085 8.09973C16.7296 8.24689 16.3489 8.32307 15.9644 8.32312C15.1873 8.32312 14.4418 8.01419 13.8923 7.46472C13.5234 7.09578 13.2634 6.63854 13.1321 6.1427H2.75C2.33579 6.1427 2 5.80691 2 5.3927C2.00017 4.97863 2.33589 4.6427 2.75 4.6427H13.1328C13.2642 4.14717 13.5236 3.69016 13.8923 3.32141C14.4418 2.77193 15.1873 2.46301 15.9644 2.46301ZM15.9644 3.96301C15.5851 3.96301 15.2211 4.11378 14.9529 4.38196C14.6848 4.65006 14.534 5.01357 14.5339 5.3927C14.5339 5.77196 14.6847 6.136 14.9529 6.40417C15.2211 6.67234 15.5851 6.82312 15.9644 6.82312C16.152 6.82307 16.3381 6.78581 16.5115 6.71399C16.6849 6.64213 16.8424 6.53688 16.9751 6.40417C17.1078 6.27147 17.2131 6.11391 17.2849 5.94055C17.3568 5.76706 17.394 5.58049 17.394 5.3927C17.394 5.20501 17.3567 5.01898 17.2849 4.84558C17.2131 4.67219 17.1078 4.51468 16.9751 4.38196C16.8424 4.24925 16.6849 4.14401 16.5115 4.07214C16.3381 4.00032 16.152 3.96306 15.9644 3.96301Z" fill="#6A46EB"/>
</svg>
