<svg width="16" height="16" viewBox="0 0 16 16" fill="none" xmlns="http://www.w3.org/2000/svg">
<path d="M1.33716 4.41394C1.35544 4.0429 1.43736 3.67732 1.57983 3.33337C1.7427 2.94024 1.98154 2.58297 2.28247 2.2821C2.58336 1.98128 2.94063 1.74273 3.33374 1.57996C3.72691 1.41719 4.14845 1.33328 4.57397 1.33337H11.4265L11.5857 1.33728C11.9569 1.35546 12.3226 1.43746 12.6667 1.57996C13.06 1.74278 13.4176 1.98115 13.7185 2.2821C14.0195 2.58305 14.2578 2.94064 14.4207 3.33386C14.5837 3.72765 14.6668 4.14912 14.6667 4.5741V8.80212L14.6643 8.89441C14.6537 9.10941 14.6059 9.32117 14.5232 9.52039C14.4287 9.74783 14.2899 9.95391 14.1155 10.1278L14.116 10.1283L10.1282 14.1161C9.95417 14.2906 9.74739 14.4293 9.51978 14.5238C9.32042 14.6065 9.10843 14.6539 8.89331 14.6644L8.80103 14.6669H4.57446C4.14891 14.667 3.72744 14.583 3.33423 14.4203C2.94096 14.2575 2.58348 14.0191 2.28247 13.7181C1.98143 13.4172 1.74271 13.0597 1.57983 12.6664C1.43732 12.3223 1.35535 11.9565 1.33716 11.5853L1.33325 11.4261V4.57361L1.33716 4.41394ZM2.33325 11.4261L2.33569 11.5365C2.34828 11.793 2.4052 12.0458 2.50366 12.2836C2.61625 12.5554 2.78143 12.8026 2.9895 13.0106C3.1976 13.2187 3.44466 13.3839 3.71655 13.4965C3.98848 13.609 4.28016 13.667 4.57446 13.6669H8.80151L8.88745 13.6625C8.97293 13.654 9.05685 13.633 9.13647 13.6C9.24259 13.5559 9.33904 13.4914 9.42017 13.41L13.4099 9.42029L13.4675 9.35681C13.5221 9.29056 13.5668 9.21661 13.5999 9.13708C13.6329 9.05754 13.6539 8.97346 13.6624 8.88806L13.6667 8.80212V4.5741C13.6668 4.27922 13.6092 3.98748 13.4968 3.71619C13.3843 3.4444 13.219 3.19764 13.011 2.98962C12.803 2.78161 12.5562 2.61635 12.2844 2.50378C12.0465 2.40528 11.7935 2.34839 11.5369 2.33582L11.4265 2.33337H4.57397C4.2798 2.3333 3.98836 2.39127 3.71655 2.50378C3.44474 2.61631 3.19755 2.78115 2.9895 2.98914C2.78144 3.19715 2.61627 3.44438 2.50366 3.71619C2.39111 3.98794 2.33325 4.27947 2.33325 4.57361V11.4261Z" fill="#6A46EB"/>
<path d="M10.2385 8.63584C10.6067 8.50971 10.9988 8.46915 11.385 8.51767L14.1252 8.86045C14.3991 8.89471 14.5934 9.14462 14.5593 9.41855C14.5272 9.67537 14.3057 9.86233 14.0524 9.85654L14.0012 9.85264L11.2614 9.51035C11.0263 9.48073 10.7869 9.50488 10.5627 9.58164C10.3385 9.65845 10.1346 9.78565 9.96699 9.95322C9.79942 10.1208 9.67218 10.3247 9.5954 10.5489C9.52821 10.7452 9.50113 10.9529 9.51533 11.1593L9.52411 11.2472V11.2481L9.86689 13.9879L9.87031 14.0392C9.87613 14.2924 9.68955 14.5138 9.43281 14.546C9.176 14.5781 8.94027 14.4096 8.88349 14.1627L8.87421 14.1119L8.53193 11.3727L8.51777 11.2276C8.49448 10.8886 8.53921 10.5477 8.6496 10.2252C8.77576 9.8567 8.9841 9.52164 9.25947 9.24619C9.53486 8.97072 9.86998 8.7621 10.2385 8.63584ZM6.62909 10.2408L6.68036 10.2433C6.9325 10.2689 7.12909 10.4819 7.12909 10.7408C7.12904 10.9996 6.93245 11.2123 6.68036 11.2379L6.62909 11.2408H4.57392C4.29781 11.2408 4.07398 11.0169 4.07392 10.7408C4.07392 10.4647 4.29778 10.2408 4.57392 10.2408H6.62909ZM7.31464 7.5001L7.36591 7.50254C7.61795 7.52823 7.81464 7.74128 7.81464 8.0001C7.81461 8.25889 7.61793 8.47197 7.36591 8.49766L7.31464 8.5001H4.57392C4.2978 8.5001 4.07395 8.27621 4.07392 8.0001C4.07392 7.72395 4.29778 7.5001 4.57392 7.5001H7.31464ZM10.7404 4.75937L10.7917 4.76182C11.0438 4.78741 11.2404 5.00048 11.2404 5.25937C11.2404 5.51827 11.0438 5.73134 10.7917 5.75693L10.7404 5.75937H4.57392C4.29778 5.75937 4.07392 5.53552 4.07392 5.25937C4.07392 4.98323 4.29778 4.75937 4.57392 4.75937H10.7404Z" fill="#6A46EB"/>
</svg>
