<svg width="24" height="24" viewBox="0 0 24 24" fill="none" xmlns="http://www.w3.org/2000/svg">
<path d="M11.25 19.5V12.75H4.5C4.08579 12.75 3.75 12.4142 3.75 12C3.75 11.5858 4.08579 11.25 4.5 11.25H11.25V4.5C11.25 4.08579 11.5858 3.75 12 3.75C12.4142 3.75 12.75 4.08579 12.75 4.5V11.25H19.5L19.5769 11.2537C19.955 11.2922 20.25 11.6117 20.25 12C20.25 12.3883 19.955 12.7078 19.5769 12.7463L19.5 12.75H12.75V19.5C12.75 19.9142 12.4142 20.25 12 20.25C11.5858 20.25 11.25 19.9142 11.25 19.5Z" fill="#6A46EB"/>
</svg>
