<svg width="32" height="32" viewBox="0 0 32 32" fill="none" xmlns="http://www.w3.org/2000/svg">
<path d="M9.9118 3.55676C12.0544 2.67069 14.4123 2.44042 16.6862 2.89368C18.9599 3.347 21.0482 4.4639 22.6872 6.10364L22.988 6.41614C24.4639 8.00495 25.4715 9.97478 25.8942 12.1075C26.3451 14.3825 26.1106 16.7408 25.2194 18.882C24.7549 19.9973 24.1215 21.0264 23.3503 21.9396L29.0407 27.6261C29.4311 28.0165 29.431 28.6496 29.0407 29.0402C28.6504 29.4307 28.0173 29.4312 27.6266 29.0411L21.9352 23.3536C21.6034 23.6325 21.2555 23.8939 20.8923 24.1359C18.9626 25.4212 16.6952 26.1058 14.3766 26.1036L14.3747 26.1027V26.1036C11.463 26.0988 8.66398 25.0123 6.5163 23.0665L6.0954 22.6652C3.90012 20.4683 2.66669 17.4903 2.66669 14.3839V14.3829L2.67548 13.9493C2.75763 11.7827 3.43908 9.67779 4.64813 7.87122C5.93772 5.94448 7.76929 4.44278 9.9118 3.55676ZM16.2946 4.85462C14.4086 4.47872 12.4536 4.67052 10.6765 5.4054C8.89939 6.14029 7.37988 7.38545 6.31024 8.98352C5.24059 10.5818 4.66845 12.4617 4.66669 14.3849C4.66692 16.9608 5.69003 19.4305 7.51044 21.2521H7.50946C9.33094 23.0743 11.8011 24.0993 14.3776 24.1036H14.3786C16.302 24.1054 18.1831 23.538 19.7839 22.4718C21.3847 21.4055 22.6332 19.888 23.3727 18.1124C24.1115 16.3372 24.3061 14.3824 23.9323 12.4962C23.5818 10.728 22.7467 9.09475 21.5231 7.77747L21.2731 7.5177C19.9135 6.15748 18.1807 5.23057 16.2946 4.85462Z" fill="black"/>
</svg>
