<svg width="24" height="24" viewBox="0 0 24 24" fill="none" xmlns="http://www.w3.org/2000/svg">
<path d="M17.8941 2.16951C18.3977 1.98744 18.9425 1.95117 19.4654 2.06698C19.9906 2.1833 20.4718 2.4474 20.8521 2.82772C21.2325 3.20806 21.4965 3.68929 21.6129 4.21444C21.7284 4.73571 21.6919 5.27858 21.5113 5.78084L21.5123 5.78182L16.5445 20.1002C16.3442 20.6783 15.9611 21.1762 15.4537 21.5181C14.9462 21.8601 14.3412 22.0281 13.7301 21.9967C13.1187 21.9652 12.5339 21.7358 12.0641 21.3433C11.5942 20.9509 11.2644 20.4159 11.1246 19.8199C11.1208 19.8035 11.1176 19.7867 11.1148 19.7701L10.2145 14.2867C10.15 14.0846 10.0404 13.8998 9.89023 13.7496C9.73942 13.5988 9.55421 13.4878 9.35117 13.4234L4.13828 12.524C4.11342 12.5197 4.08836 12.5142 4.06406 12.5074C3.48996 12.3471 2.98132 12.0086 2.61094 11.5416C2.24062 11.0745 2.02777 10.5024 2.00254 9.90682C1.9773 9.31122 2.14077 8.72291 2.47031 8.22616C2.79993 7.72936 3.27886 7.34947 3.8375 7.14119L3.84922 7.13631L17.8941 2.16951ZM19.1412 3.53182C18.8949 3.47726 18.638 3.4943 18.401 3.58065L18.3941 3.5826L4.34922 8.55135C4.09243 8.64991 3.8725 8.82589 3.72031 9.05526C3.56578 9.28817 3.48875 9.56408 3.50058 9.84334C3.51242 10.1226 3.61303 10.3909 3.78672 10.6099C3.95409 10.8209 4.18186 10.9741 4.43906 11.0523L9.66465 11.9556C9.69296 11.9605 9.72107 11.9671 9.74863 11.9752C10.2026 12.1088 10.6161 12.3544 10.9508 12.689C11.2437 12.9819 11.4679 13.3353 11.609 13.7232L11.6646 13.8912L11.6852 13.981L12.5895 19.4918C12.6569 19.7656 12.8094 20.011 13.026 20.192C13.2463 20.376 13.5205 20.4839 13.8072 20.4986C14.0939 20.5134 14.3777 20.4344 14.6158 20.274C14.8538 20.1136 15.0336 19.8802 15.1275 19.609L20.0953 5.28963L20.0992 5.27889C20.1855 5.04189 20.2026 4.78492 20.148 4.53866C20.0934 4.29247 19.9699 4.06658 19.7916 3.88826C19.6132 3.70995 19.3874 3.58639 19.1412 3.53182Z" fill="white"/>
</svg>
