<svg width="16" height="16" viewBox="0 0 16 16" fill="none" xmlns="http://www.w3.org/2000/svg">
<path d="M11.8235 2.01868L11.9685 2.02454C12.305 2.05088 12.6292 2.16765 12.906 2.36389C13.1827 2.5601 13.4002 2.82718 13.5364 3.13586L13.5896 3.27112L14.3298 5.38196L14.3386 5.41028L14.6472 6.49231C14.66 6.5372 14.6668 6.58381 14.6667 6.63049C14.6657 7.15802 14.5012 7.67236 14.196 8.10266C13.8909 8.53298 13.4597 8.85791 12.9622 9.03333L12.9617 9.03284C12.7234 9.12112 12.4734 9.17244 12.22 9.18323L12.1101 9.18518C11.5826 9.18415 11.0682 9.02011 10.6379 8.71497C10.4123 8.55492 10.2163 8.35949 10.0549 8.13879C9.89366 8.35923 9.6983 8.55456 9.4729 8.71448C9.04277 9.01964 8.52861 9.18398 8.00122 9.18518H7.99878C7.47136 9.18401 6.95727 9.01965 6.5271 8.71448C6.30162 8.55451 6.10589 8.35932 5.94458 8.13879C5.78319 8.35943 5.58719 8.55496 5.36157 8.71497C4.93164 9.0198 4.41789 9.18342 3.89087 9.18469L3.89136 9.18518L3.88989 9.18469L3.88941 9.18518L3.88892 9.18469C3.59595 9.18606 3.30165 9.13463 3.02515 9.02893C2.53299 8.8525 2.10655 8.52928 1.80396 8.10266C1.49879 7.67236 1.33429 7.15802 1.33325 6.63049C1.33317 6.58388 1.33953 6.53714 1.3523 6.49231L1.6604 5.41028C1.66311 5.40077 1.66592 5.39129 1.66919 5.38196L2.40942 3.27112L2.46265 3.13586C2.59889 2.82698 2.81661 2.55965 3.09351 2.3634C3.41001 2.1391 3.78859 2.01877 4.17651 2.01868H11.8235ZM4.17651 3.01868C3.99581 3.01876 3.81958 3.07488 3.67212 3.17932C3.52475 3.28376 3.4128 3.43133 3.35278 3.60168L2.61841 5.69641L2.33569 6.69006C2.34815 6.98925 2.44567 7.27907 2.61939 7.52405C2.78183 7.75309 3.00308 7.93308 3.25855 8.04602L3.37036 8.09045L3.38257 8.09485C3.54119 8.15547 3.71274 8.18614 3.8855 8.18518H3.88745C4.20842 8.18458 4.52164 8.08472 4.78345 7.89905C5.0452 7.71339 5.24315 7.45121 5.34985 7.14856L5.35425 7.13684C5.41516 6.97702 5.44557 6.80532 5.44458 6.63196V6.62805L5.44751 6.57678C5.47378 6.32552 5.68604 6.12986 5.94409 6.12952C6.2193 6.12924 6.44301 6.35136 6.44458 6.62659C6.44459 6.62789 6.44409 6.62919 6.44409 6.63049L6.44458 6.63098C6.44407 6.80438 6.47497 6.97645 6.53589 7.13879C6.53707 7.14195 6.53819 7.14538 6.53931 7.14856C6.64599 7.45117 6.84402 7.71339 7.10571 7.89905C7.36705 8.08442 7.67937 8.18372 7.99976 8.18469C8.3203 8.18379 8.63284 8.08453 8.89429 7.89905C9.15595 7.71341 9.35351 7.45112 9.46021 7.14856L9.4646 7.13684C9.52585 6.97612 9.55689 6.80486 9.55542 6.63342V6.62805L9.55786 6.57678C9.58409 6.32577 9.79618 6.13023 10.054 6.12952C10.3289 6.1288 10.5531 6.35015 10.5554 6.62512C10.5554 6.62691 10.5549 6.6287 10.5549 6.63049C10.5545 6.76057 10.5723 6.89022 10.6067 7.01526L10.6467 7.13879L10.6501 7.14856C10.7569 7.45122 10.9548 7.71339 11.2166 7.89905C11.4783 8.08469 11.7912 8.18455 12.1121 8.18518C12.2854 8.18565 12.4581 8.15479 12.6204 8.09387L12.6296 8.09045C12.9323 7.98375 13.1945 7.78583 13.3801 7.52405C13.5538 7.27919 13.6513 6.9896 13.6638 6.69055L13.3821 5.70178L12.6462 3.60266L12.6213 3.53967C12.5579 3.39572 12.4564 3.27131 12.3274 3.17981C12.1983 3.08831 12.0473 3.03339 11.8904 3.02112L11.823 3.01868H4.17651Z" fill="#6A46EB"/>
<path d="M2.70258 12.1114V8.56205C2.70258 8.28591 2.92644 8.06205 3.20258 8.06205C3.47872 8.06205 3.70258 8.28591 3.70258 8.56205V12.1114C3.70258 12.2257 3.72524 12.3388 3.76899 12.4444C3.81272 12.5499 3.87668 12.6458 3.95746 12.7266C4.03829 12.8074 4.13457 12.8714 4.24018 12.9151C4.34574 12.9587 4.45895 12.9815 4.57319 12.9815H11.4257L11.5117 12.9771C11.7108 12.9572 11.8982 12.8693 12.041 12.7266C12.1837 12.5839 12.2716 12.3964 12.2914 12.1973L12.2958 12.1114V8.56205C12.2958 8.28593 12.5197 8.06209 12.7958 8.06205C13.072 8.06205 13.2958 8.28591 13.2958 8.56205V12.1119C13.2955 12.6076 13.0985 13.0831 12.748 13.4336C12.3974 13.7842 11.922 13.9812 11.4262 13.9815H4.57319C4.32764 13.9816 4.08425 13.9333 3.85737 13.8394C3.63045 13.7455 3.42413 13.6077 3.25043 13.4341C3.07671 13.2605 2.93919 13.0541 2.84516 12.8272C2.75113 12.6003 2.70258 12.357 2.70258 12.1114ZM10.0551 10.9258C10.3312 10.9258 10.555 11.1498 10.5551 11.4258C10.5551 11.702 10.3313 11.9258 10.0551 11.9258H5.94477C5.66863 11.9258 5.44477 11.702 5.44477 11.4258C5.44489 11.1498 5.6687 10.9258 5.94477 10.9258H10.0551Z" fill="#6A46EB"/>
</svg>
