<svg width="16" height="16" viewBox="0 0 16 16" fill="none" xmlns="http://www.w3.org/2000/svg">
<path d="M1.5 3.71143L1.50293 3.60205C1.53042 3.05554 1.75968 2.5372 2.14844 2.14844C2.56305 1.73382 3.12508 1.50051 3.71143 1.5H6.99121C7.80496 1.5 8.58485 1.82436 9.15967 2.3999L13.8511 7.09131C14.0569 7.29671 14.2201 7.54098 14.3315 7.80957C14.4429 8.07813 14.5005 8.366 14.5005 8.65674C14.5005 8.94749 14.4429 9.23534 14.3315 9.50391C14.2202 9.77235 14.0567 10.0159 13.8511 10.2212L10.2217 13.8516L10.2212 13.8511C10.0159 14.0567 9.77235 14.2202 9.50391 14.3315C9.23534 14.4429 8.94749 14.5005 8.65674 14.5005C8.366 14.5005 8.07813 14.4429 7.80957 14.3315C7.54115 14.2202 7.29712 14.0572 7.0918 13.8516L2.3999 9.15967C2.11497 8.87518 1.88878 8.53739 1.73438 8.16553C1.57994 7.79351 1.50029 7.3945 1.5 6.9917V3.71143ZM2.50244 7.09277C2.51428 7.32937 2.56672 7.56248 2.65771 7.78174C2.76178 8.03242 2.91436 8.26038 3.10645 8.45215L7.79932 13.145C7.91178 13.2577 8.04534 13.3472 8.19238 13.4082C8.33951 13.4692 8.49745 13.5005 8.65674 13.5005C8.81592 13.5005 8.97356 13.4692 9.12061 13.4082C9.2677 13.3472 9.40166 13.2577 9.51416 13.145L13.1445 9.51416C13.2572 9.40166 13.3472 9.2677 13.4082 9.12061C13.4692 8.97356 13.5005 8.81592 13.5005 8.65674C13.5005 8.49745 13.4692 8.33951 13.4082 8.19238C13.3472 8.04534 13.2577 7.91178 13.145 7.79932L8.45215 3.10645C8.06432 2.71815 7.53868 2.5 6.99121 2.5H3.7124L3.59277 2.50586C3.31524 2.53356 3.05441 2.65652 2.85547 2.85547C2.62816 3.08278 2.50025 3.39093 2.5 3.7124V6.99121L2.50244 7.09277Z" fill="#6A46EB"/>
<path d="M7.29647 6.08374C7.29647 5.92459 7.26507 5.76691 7.20419 5.61987C7.14327 5.47281 7.05403 5.33888 6.94149 5.22631C6.82892 5.11374 6.69502 5.02454 6.54794 4.96362C6.40087 4.9027 6.24325 4.87134 6.08407 4.87133C5.76254 4.87133 5.454 4.99896 5.22665 5.22631C4.99929 5.45367 4.87167 5.76221 4.87167 6.08374C4.87169 6.40524 4.99931 6.71382 5.22665 6.94116C5.454 7.16847 5.76257 7.29614 6.08407 7.29614C6.24323 7.29613 6.40088 7.26476 6.54794 7.20385C6.69502 7.14293 6.82892 7.05373 6.94149 6.94116C7.05407 6.82858 7.14326 6.69469 7.20419 6.5476C7.26509 6.40055 7.29646 6.2429 7.29647 6.08374ZM8.29647 6.08374C8.29646 6.37424 8.23919 6.66202 8.12801 6.93042C8.01684 7.1988 7.85394 7.44277 7.64852 7.64819C7.44311 7.8536 7.19913 8.0165 6.93075 8.12768C6.66236 8.23885 6.37457 8.29613 6.08407 8.29614C5.49735 8.29614 4.9345 8.06304 4.51962 7.64819C4.10474 7.23331 3.87169 6.67046 3.87167 6.08374C3.87167 5.49699 4.10472 4.93418 4.51962 4.51928C4.93451 4.10439 5.49732 3.87133 6.08407 3.87133C6.37457 3.87134 6.66236 3.92862 6.93075 4.03979C7.19911 4.15097 7.44312 4.31388 7.64852 4.51928C7.85392 4.7247 8.01685 4.96867 8.12801 5.23706C8.23918 5.50546 8.29647 5.79322 8.29647 6.08374Z" fill="#6A46EB"/>
</svg>
