<svg width="24" height="24" viewBox="0 0 24 24" fill="none" xmlns="http://www.w3.org/2000/svg">
<path d="M4.71997 18.5288V6.76462H3.29395C2.87973 6.76462 2.54395 6.42883 2.54395 6.01462C2.54409 5.60052 2.87982 5.26462 3.29395 5.26462H18.5137C18.5188 5.26451 18.5239 5.26388 18.5291 5.26388C18.5342 5.26388 18.5393 5.26451 18.5444 5.26462H20.7058L20.7827 5.26901C21.1608 5.30746 21.4557 5.62645 21.4558 6.01462C21.4558 6.40291 21.1609 6.7225 20.7827 6.76095L20.7058 6.76462H19.2791V18.5302L19.2747 18.7016C19.2322 19.5594 18.8726 20.3737 18.2625 20.9839C17.6117 21.6345 16.729 21.9997 15.8088 21.9997H8.19092C7.73512 21.9999 7.28344 21.9104 6.8623 21.7361C6.4413 21.5617 6.05882 21.306 5.73657 20.9839C5.41422 20.6615 5.15803 20.2786 4.98364 19.8574C4.83107 19.4889 4.74381 19.097 4.72437 18.6994L4.71997 18.5288ZM6.21997 18.5295C6.21992 18.7882 6.27118 19.0442 6.37012 19.2832C6.46911 19.5223 6.61413 19.7396 6.79712 19.9226C6.98014 20.1056 7.19738 20.2513 7.43652 20.3503C7.67561 20.4493 7.93216 20.4998 8.19092 20.4997H15.8088C16.3313 20.4997 16.8325 20.292 17.2019 19.9226C17.5252 19.5993 17.7248 19.1754 17.7695 18.7243L17.7791 18.5302V6.76462H6.21997V18.5295Z" fill="#DB4D4D"/>
<path d="M14.5152 6.01502V4.38098L14.5108 4.29456C14.5024 4.20839 14.481 4.12363 14.4478 4.04334C14.4036 3.93643 14.3385 3.83948 14.2567 3.75769C14.1748 3.6759 14.078 3.61072 13.971 3.56653C13.8908 3.53338 13.8059 3.51262 13.7198 3.50427L13.6334 3.49988H10.3668C10.251 3.49967 10.1361 3.52235 10.0291 3.56653C9.92211 3.61073 9.82466 3.67584 9.74276 3.75769C9.66096 3.83949 9.59582 3.93645 9.55159 4.04334C9.50733 4.15033 9.4848 4.26519 9.48494 4.38098V6.01502C9.48487 6.42917 9.14911 6.76502 8.73494 6.76502C8.32078 6.76502 7.98502 6.42917 7.98494 6.01502V4.38172C7.9847 4.06892 8.04628 3.75889 8.16585 3.46985C8.28553 3.18065 8.46084 2.91768 8.68221 2.69641C8.90369 2.47507 9.16697 2.29959 9.45638 2.18006C9.7455 2.06066 10.0555 2.00018 10.3682 2.00061L13.6319 1.99988C13.9445 1.99948 14.2541 2.06077 14.543 2.18006C14.8325 2.29957 15.0957 2.47508 15.3172 2.69641C15.5387 2.91774 15.7146 3.18054 15.8343 3.46985C15.9539 3.75889 16.0155 4.06892 16.0152 4.38172V6.01502C16.0151 6.42908 15.6793 6.76487 15.2652 6.76502C14.851 6.76502 14.5153 6.42917 14.5152 6.01502Z" fill="#DB4D4D"/>
</svg>
